HIERARCHY
ROOT root
{
	OFFSET	0	13.1	24.9
	CHANNELS 6  Xposition Yposition Zposition Xrotation Yrotation Zrotation
	JOINT spine_1
	{
		OFFSET	0	9.99999	0
		CHANNELS 3  Xrotation Yrotation Zrotation
		JOINT spine_2
		{
			OFFSET	0	112	-10
			CHANNELS 3  Xrotation Yrotation Zrotation
			JOINT spine_3
			{
				OFFSET	0	206.5	19.3
				CHANNELS 3  Xrotation Yrotation Zrotation
				JOINT spine_4
				{
					OFFSET	0	110.4	14.6
					CHANNELS 3  Xrotation Yrotation Zrotation
					JOINT neck_1
					{
						OFFSET	0	71.8	-50.3
						CHANNELS 3  Xrotation Yrotation Zrotation
						JOINT neck_2
						{
							OFFSET	0	86.2	-25.8
							CHANNELS 3  Xrotation Yrotation Zrotation
							JOINT head_ee
							{
								OFFSET	0	179.8	-8.7
								CHANNELS 3  Xrotation Yrotation Zrotation
								End Site
								{
									OFFSET	1	0	0
								}
							}
						}
					}
					JOINT left_clavicle
					{
						OFFSET	-43.2	22.4	-70.8
						CHANNELS 3  Xrotation Yrotation Zrotation
						JOINT left_shoulder
						{
							OFFSET	-93.9	-5.79999	48.7
							CHANNELS 3  Xrotation Yrotation Zrotation
							JOINT left_elbow
							{
								OFFSET	-291.4	-30.8	15.2
								CHANNELS 3  Xrotation Yrotation Zrotation
								JOINT left_lowarm_twist
								{
									OFFSET	-110.7	-3.89999	13.6
									CHANNELS 3  Xrotation Yrotation Zrotation
									JOINT left_hand
									{
										OFFSET	-110.7	-3.89999	13.6
										CHANNELS 3  Xrotation Yrotation Zrotation
										JOINT left_ee
										{
											OFFSET	-80.8	-5.10001	12.1
											CHANNELS 3  Xrotation Yrotation Zrotation
											End Site
											{
												OFFSET	1	0	0
											}
										}
									}
								}
							}
						}
					}
					JOINT right_clavicle
					{
						OFFSET	43.2	22.4	-70.8
						CHANNELS 3  Xrotation Yrotation Zrotation
						JOINT right_shoulder
						{
							OFFSET	93.9	-5.79999	48.7
							CHANNELS 3  Xrotation Yrotation Zrotation
							JOINT right_elbow
							{
								OFFSET	291.4	-30.8	15.2
								CHANNELS 3  Xrotation Yrotation Zrotation
								JOINT right_lowarm_twist
								{
									OFFSET	110.7	-3.89999	13.6
									CHANNELS 3  Xrotation Yrotation Zrotation
									JOINT right_hand
									{
										OFFSET	110.7	-3.89999	13.6
										CHANNELS 3  Xrotation Yrotation Zrotation
										JOINT right_ee
										{
											OFFSET	80.8	-5.10001	12.1
											CHANNELS 3  Xrotation Yrotation Zrotation
											End Site
											{
												OFFSET	1	0	0
											}
										}
									}
								}
							}
						}
					}
				}
			}
		}
	}
	JOINT left_hip
	{
		OFFSET	-82.8	-127.5	0.300001
		CHANNELS 3  Xrotation Yrotation Zrotation
		JOINT left_knee
		{
			OFFSET	-28.2	-396.7	2.2
			CHANNELS 3  Xrotation Yrotation Zrotation
			JOINT left_ankle
			{
				OFFSET	-11.7	-411.3	35.4
				CHANNELS 3  Xrotation Yrotation Zrotation
				JOINT left_toes
				{
					OFFSET	0	-60	-88.6
					CHANNELS 3  Xrotation Yrotation Zrotation
					JOINT left_foot_ee
					{
						OFFSET	-22.5	-16.5	-42.2
						CHANNELS 3  Xrotation Yrotation Zrotation
						End Site
						{
							OFFSET	1	0	0
						}
					}
				}
			}
		}
	}
	JOINT right_hip
	{
		OFFSET	82.8	-127.5	0.300001
		CHANNELS 3  Xrotation Yrotation Zrotation
		JOINT right_knee
		{
			OFFSET	28.2	-396.7	2.2
			CHANNELS 3  Xrotation Yrotation Zrotation
			JOINT right_ankle
			{
				OFFSET	11.7	-411.3	35.4
				CHANNELS 3  Xrotation Yrotation Zrotation
				JOINT right_toes
				{
					OFFSET	0	-60	-88.6
					CHANNELS 3  Xrotation Yrotation Zrotation
					JOINT right_foot_ee
					{
						OFFSET	22.5	-16.5	-42.2
						CHANNELS 3  Xrotation Yrotation Zrotation
						End Site
						{
							OFFSET	1	0	0
						}
					}
				}
			}
		}
	}
}
MOTION
Frames: 10
Frame Time: 0.02
1041.4 574.639 -1682.42 2.10600008274 37.9643315149 1.34342853365 -1.27451 0.264899 0.249676 -1.27451 0.248474 0.266026 -1.27331 0.180029 0.316384 -1.27338 0.227736 0.283981 -9.74572 16.1741 3.35532 -9.97756 28.2058 7.35332 -0.0 0.0 -0.0 1.18109 22.7347 4.27658 -1.59578 -37.9015 64.2794 2.04643 -45.3856 0.855814 -22.2952 -1.29367 2.52224 0.628386 -3.10068 2.91382 -0.0 0.0 -0.0 11.0336 10.3251 -22.11 -31.5788 17.8581 -52.2483 0.466014 12.9992 -0.0530926 28.4022 -0.112969 3.58948 2.98686 -30.1457 -28.9528 0.0 0.0 0.0 17.8744 -11.7053 -14.4645 2.60591 -0.11605 -0.382986 2.68088 26.9335 -0.411238 1.28761 -0.0 -0.0 -0.0 0.0 -0.0 -19.8979 16.1865 3.35536 -8.40201 -0.253677 -1.26335 38.7327 17.3447 5.13275 -3.76485 0.0 0.0 0.0 0.0 0.0 
1018.00452712 576.141 -1690.8583558 1.88039440985 39.1823379559 1.83486089205 -1.13258 0.129073 0.369721 -1.13251 0.105286 0.377185 -1.13174 0.0159344 0.39128 -1.13194 0.0775293 0.383853 -7.65518 16.2296 4.27966 -7.67877 27.2823 7.74223 -0.0 0.0 -0.0 1.29506 23.6012 4.4972 -2.98808 -37.0578 64.1873 1.89204 -43.1407 0.748035 -23.5618 -1.39563 2.6485 0.683883 -3.26909 3.21712 -0.0 0.0 -0.0 11.2681 12.0144 -22.6145 -30.9658 17.3512 -53.2247 0.502904 13.9892 -0.0617012 28.9152 -0.0986072 3.65344 3.14825 -28.1902 -29.6877 0.0 0.0 0.0 17.5699 -12.2088 -14.6636 1.01804 -0.0432582 -0.150231 0.289524 25.8555 -0.0443831 2.54747 -0.0 -0.0 -0.0 0.0 -0.0 -19.7033 15.6547 4.12598 -11.1654 -0.296308 -1.68519 38.8814 17.4622 5.15072 -3.06548 0.0 0.0 0.0 0.0 0.0 
999.031862984 573.227 -1699.3248267 1.85405479884 41.0979421911 2.06812126673 -1.09384 0.0413118 0.134316 -1.09383 0.0326812 0.136672 -1.09375 0.000543687 0.140524 -1.09377 0.02273 0.138675 -7.1288 16.5101 3.0263 -7.13377 28.5949 6.4464 -0.0 0.0 -0.0 0.924521 23.9878 4.02252 -3.23698 -36.4824 65.4305 1.6895 -39.9236 0.61369 -25.987 -1.59857 2.88386 0.800861 -2.86779 4.17241 -0.0 0.0 -0.0 11.4151 11.8967 -22.9467 -30.7885 17.5789 -53.2642 0.507668 14.1164 -0.0628578 29.1693 -0.091282 3.68507 3.16689 -28.1629 -29.8046 0.0 0.0 0.0 15.5883 -12.2202 -14.3577 2.0697 -0.0907464 -0.30461 1.82404 25.7815 -0.27854 3.30974 -0.0 -0.0 -0.0 0.0 -0.0 -19.6372 15.2864 4.53577 -13.8392 -0.318149 -2.09483 38.9685 16.3743 5.11961 -1.01225 0.0 0.0 0.0 0.0 0.0 
978.573854069 577.183 -1702.8890495 1.42680742916 42.8005951126 2.73530434902 -1.04222 0.0278245 0.0905106 -1.04221 0.0220087 0.0920977 -1.04217 0.000438163 0.0946899 -1.04219 0.0153872 0.0934324 -6.20535 16.4415 3.71231 -6.12185 27.7892 6.88785 -0.0 0.0 -0.0 1.47162 24.6499 4.80679 -3.44365 -35.2625 66.1157 1.46136 -35.8992 0.473427 -25.6166 -1.56692 2.84847 0.799157 -1.9518 4.54112 -0.0 0.0 -0.0 11.425 11.223 -22.9771 -29.7067 18.0078 -53.6054 0.500171 13.9161 -0.0610422 29.4081 -0.0842698 3.71476 2.93656 -27.2151 -28.1548 0.0 0.0 0.0 14.9896 -12.7933 -14.4366 1.23656 -0.0528916 -0.182378 1.01153 24.1942 -0.15348 3.52403 -0.0 -0.0 -0.0 0.0 -0.0 -18.4198 14.9531 4.77889 -15.734 -0.322045 -2.3855 37.9769 12.4808 4.90873 -0.789736 0.0 0.0 0.0 0.0 0.0 
954.345855652 586.748 -1708.65625263 1.38418203882 44.8201997312 3.22526706642 -0.916208 0.162602 0.0497303 -0.916221 0.159108 0.0599763 -0.916057 0.141458 0.0943506 -0.916036 0.154584 0.0708258 -6.07634 15.5712 3.21192 -5.99541 26.5051 6.19006 -0.0 0.0 -0.0 2.17649 24.6217 5.74892 -4.96257 -34.7259 65.6911 1.16216 -29.9281 0.31063 -27.8173 -1.75825 3.05574 -0.279109 -0.254069 -1.97249 -0.0 0.0 -0.0 11.5707 10.3914 -23.3097 -28.9518 18.3388 -54.0675 0.559142 15.482 -0.0760068 30.7564 -0.0423585 3.88188 2.36486 -30.1049 -25.1264 0.0 0.0 0.0 13.6937 -12.2586 -13.7277 -1.70619 0.0664825 0.253391 9.50895 25.3692 -1.41911 1.88641 -0.0 -0.0 -0.0 0.0 -0.0 -17.9856 13.2203 4.33713 -16.0884 -0.321707 -2.43988 38.4055 8.27942 4.84884 1.7681 -0.0 -0.0 0.0 0.0 0.0 
931.08151961 591.776 -1706.20661145 1.42378670872 47.5420692661 4.33128889982 -0.78374 0.145106 -0.376348 -0.783677 0.168759 -0.366352 -0.784755 0.246389 -0.319353 -0.784845 0.192861 -0.354257 -7.20596 15.7216 4.24137 -7.19196 26.2652 7.49033 -0.0 0.0 -0.0 2.42389 23.9643 6.05678 -5.03274 -33.0956 67.7495 0.935069 -24.8535 0.20605 -29.913 -1.94775 3.24622 -1.13702 5.70287 -5.06698 -0.0 0.0 -0.0 11.4043 10.8621 -22.934 -29.1866 18.4593 -54.2391 0.677826 18.5608 -0.110762 31.6198 -0.0134552 3.98837 2.34972 -29.3829 -24.8967 0.0 0.0 0.0 12.7578 -12.2239 -13.5952 -2.06726 0.0795812 0.307256 13.2871 25.1571 -1.95649 -0.921213 0.0 0.0 -0.0 0.0 -0.0 -16.5954 12.995 3.70861 -17.3962 -0.317547 -2.64049 39.2041 7.03932 4.89619 1.8697 -0.0 -0.0 0.0 0.0 0.0 
908.902692596 599.155 -1704.16830639 1.75300843109 51.0250794444 4.54348147927 -0.724343 0.0905441 -0.474841 -0.724226 0.120576 -0.468118 -0.725174 0.221729 -0.429545 -0.725399 0.151109 -0.459172 -8.41364 15.0713 4.85523 -8.46043 24.8508 8.20391 -0.0 0.0 -0.0 3.037 23.7651 6.88929 -6.00053 -31.3991 66.8508 0.751577 -20.4207 0.135372 -30.625 -2.0137 3.30934 -1.55942 7.09703 -7.20472 -0.0 0.0 -0.0 11.1269 10.5103 -22.3164 -28.496 18.7177 -54.8412 0.745015 20.257 -0.133091 33.2598 0.0458499 4.1894 2.53622 -29.4522 -26.0449 0.0 0.0 0.0 11.9535 -11.9504 -13.3517 -3.60726 0.131623 0.537864 15.9073 22.8537 -2.29305 -2.72653 0.0 0.0 -0.0 0.0 -0.0 -15.9912 12.342 3.06551 -18.1291 -0.313214 -2.75284 39.7223 3.98853 4.89327 1.91492 -0.0 -0.0 0.0 0.0 0.0 
884.428438271 604.991 -1699.47659134 3.31945299087 54.7352420205 3.19436080317 -0.627096 -0.274843 -0.586803 -0.626935 -0.236947 -0.603101 -0.624257 -0.0979329 -0.640533 -0.624775 -0.197862 -0.617029 -11.1529 13.7139 5.61932 -11.2972 22.2838 9.14112 -0.0 0.0 -0.0 3.03193 24.0055 6.88704 -7.04263 -30.6931 67.4109 0.657821 -18.0491 0.104479 -31.6375 -2.10885 3.39771 -2.33928 11.0157 -10.4005 -0.0 0.0 -0.0 10.8656 8.32741 -21.739 -27.8393 18.8562 -54.8074 0.890797 23.8104 -0.187808 36.7237 0.18991 4.60805 2.62737 -26.0087 -25.9404 0.0 0.0 0.0 9.14042 -11.5168 -11.9268 -2.98018 0.111181 0.443797 16.8876 24.4255 -2.44472 -5.11056 0.0 0.0 -0.0 0.0 -0.0 -14.0691 14.0295 3.68966 -26.7081 -0.156012 -4.0587 39.9799 2.05122 4.89241 6.2072 -0.0 -0.0 0.0 0.0 0.0 
860.636915488 610.859 -1695.58549193 5.33298835719 59.3327920398 1.34288720425 -0.496327 -0.354355 -0.845119 -0.495979 -0.299862 -0.865952 -0.491095 -0.103382 -0.910548 -0.492167 -0.245883 -0.882797 -12.074 13.356 5.80258 -12.2442 21.649 9.38989 -0.0 0.0 -0.0 2.77593 24.1838 6.54256 -8.05258 -28.8928 67.6749 0.504272 -14.0257 0.0620321 -31.8818 -2.13203 3.41878 -2.9486 13.8636 -12.8493 -0.0 0.0 -0.0 10.7053 6.78629 -21.3724 -27.017 19.1834 -54.7076 1.02302 26.8741 -0.244423 37.1238 0.208179 4.65584 3.07087 -27.7509 -29.115 0.0 0.0 0.0 6.4841 -10.6593 -10.8334 -0.887289 0.0355167 0.131532 17.1202 25.4158 -2.48971 -6.34688 0.0 0.0 -0.0 0.0 -0.0 -12.1114 13.1412 2.93685 -33.6408 0.112516 -5.08809 40.3939 -1.51215 4.90028 10.5943 -0.0 -0.0 0.0 0.0 0.0 
842.204630071 616.035 -1685.01086838 5.88031280055 61.9844329784 0.535660931003 -0.311188 -0.3728 -0.919298 -0.310773 -0.313549 -0.941155 -0.305237 -0.103509 -0.986592 -0.306502 -0.258017 -0.957868 -14.862 13.2618 8.81609 -14.9835 20.1468 12.7015 -0.0 0.0 -0.0 2.31338 23.3941 5.8829 -9.11551 -28.0026 68.2606 0.421878 -11.8043 0.0436132 -31.813 -2.1255 3.41285 -3.07089 15.8728 -12.5311 -0.0 0.0 -0.0 10.5587 4.57236 -21.0086 -25.7337 19.5621 -54.6511 1.21325 31.005 -0.336532 37.3732 0.219734 4.68556 2.63077 -27.0944 -26.183 0.0 0.0 0.0 4.62713 -10.264 -9.90306 -0.22221 0.0090862 0.0328898 20.4736 26.4452 -2.95587 -7.43504 0.0 0.0 -0.0 0.0 -0.0 -10.4139 13.42 2.93549 -38.216 0.357186 -5.7469 40.3736 -5.24588 4.89006 11.6016 -0.0 -0.0 0.0 0.0 0.0 
